 http://img189.imageshack.us/img189/4096/7121887hwehhpp.jpg

Country.......: USA
Genre.........: Drama, Romance
Date release..: 23.01.2002 [World]
Director......: Adam Shankman
Writers.......: Nicholas Sparks, Karen Janszen
Duration......: 98 min.
More..........: http://www.imdb.com/title/tt0281358
Trailer.......: http://www.imdb.com/video/imdblink/vi3565159449
Trailer.......:

Pilot :
The story of two North Carolina teens, Landon Carter and Jamie Sullivan, who are thrown together after Landon gets into trouble and is made to do community service.

Cats :
Shane West   	 ...  	Landon Carter
Mandy Moore 	... 	Jamie Sullivan
Peter Coyote 	... 	Reverend Sullivan
Daryl Hannah 	... 	Cynthia Carter
Lauren German 	... 	Belinda
Clayne Crawford 	... 	Dean
Al Thompson 	... 	Eric
Paz de la Huerta 	... 	Tracie (as Paz De La Huerta)
Jonathan Parks Jordan 	... 	Walker
Matt Lutz 	... 	Clay Gephardt
David Andrews 	... 	Mr. Kelly
David Lee Smith 	... 	Dr. Carter
Xavier Hernandez 	... 	Luis
Marisa Miller 	... 	Ms. Garber
Paula Jones 	... 	Sally 

Data Technical :
!!! SAMPLE !!!
Audio.....: Lektor Polish
Subtitles.: Polish .txt
Format                           : AVI
Format/Info                      : Audio Video Interleave
File size                        : 700 MiB
Duration                         : 1h 37mn
Overall bit rate                 : 1 001 Kbps
Writing application              : Nandub v1.0rc2
Writing library                  : Nandub build 1853/release
Video
ID                               : 0
Format                           : MPEG-4 Visual
Codec ID                         : DIV3
Codec ID/Hint                    : DivX 3 Low
Duration                         : 1h 37mn
Bit rate                         : 852 Kbps
Width                            : 576 pixels
Height                           : 240 pixels
Display aspect ratio             : 2.40:1
Frame rate                       : 25.000 fps
Color space                      : YUV
Chroma subsampling               : 4:2:0
Bit depth                        : 8 bits
Bits/(Pixel*Frame)               : 0.247
Stream size                      : 596 MiB (85%)
Audio
ID                               : 1
Format                           : MPEG Audio
Format version                   : Version 1
Format profile                   : Layer 3
Codec ID                         : 55
Codec ID/Hint                    : MP3
Duration                         : 1h 37mn
Bit rate mode                    : Variable
Bit rate                         : 135 Kbps
Minimum bit rate                 : 128 Kbps
Channel(s)                       : 2 channels
Sampling rate                    : 48.0 KHz
Stream size                      : 94.7 MiB (14%)
Alignment                        : Aligned on interleaves
Interleave, duration             : 24 ms (0.60 video frame)
Interleave, preload duration     : 459 ms
Writing library                  : LAME3.91 
Encoding settings                : -m s -V 0 -q 2 -lowpass 20.4 --vbr-old -b 128

Screen : 
http://img52.imageshack.us/img52/8051/awalktoremember2002s1.jpg 
http://img707.imageshack.us/img707/2396/awalktoremember2002s2.jpg 
http://img193.imageshack.us/img193/2846/awalktoremember2002s3.jpg 
http://img30.imageshack.us/img30/5210/awalktoremember2002s4.jpg 
http://img196.imageshack.us/img196/3395/awalktoremember2002s5.jpg